<svg width="24" height="24" viewBox="0 0 24 24" fill="none" xmlns="http://www.w3.org/2000/svg">
<path d="M9 13H15M15 13L13 11M15 13L13 15M12.0627 5.06274L11.9373 4.93726C11.5914 4.59135 11.4184 4.4184 11.2166 4.29472C11.0376 4.18506 10.8425 4.10425 10.6385 4.05526C10.4083 4 10.1637 4 9.67452 4H6.2C5.0799 4 4.51984 4 4.09202 4.21799C3.71569 4.40973 3.40973 4.71569 3.21799 5.09202C3 5.51984 3 6.07989 3 7.2V16.8C3 17.9201 3 18.4802 3.21799 18.908C3.40973 19.2843 3.71569 19.5903 4.09202 19.782C4.51984 20 5.07989 20 6.2 20H17.8C18.9201 20 19.4802 20 19.908 19.782C20.2843 19.5903 20.5903 19.2843 20.782 18.908C21 18.4802 21 17.9201 21 16.8V9.2C21 8.0799 21 7.51984 20.782 7.09202C20.5903 6.71569 20.2843 6.40973 19.908 6.21799C19.4802 6 18.9201 6 17.8 6H14.3255C13.8363 6 13.5917 6 13.3615 5.94474C13.1575 5.89575 12.9624 5.81494 12.7834 5.70528C12.5816 5.5816 12.4086 5.40865 12.0627 5.06274Z" stroke="#6C808C" stroke-width="1.5" stroke-linecap="round" stroke-linejoin="round"/>
</svg>
