<svg width="24" height="24" viewBox="0 0 24 24" fill="none" xmlns="http://www.w3.org/2000/svg">
<g clip-path="url(#clip0_116_62776)">
<mask id="path-1-inside-1_116_62776" fill="white">
<path d="M12.1663 16.3278C11.7686 15.9154 11.1284 15.8575 10.6631 16.1919L5.86818 19.6378C5.81749 19.6742 5.77073 19.7158 5.72284 19.7558C5.64136 19.8239 5.54989 19.8793 5.45146 19.9201C5.3241 19.9728 5.1876 20 5.04974 20C4.91189 20 4.77538 19.9728 4.64802 19.9201C4.52066 19.8673 4.40494 19.79 4.30746 19.6925C4.20999 19.595 4.13266 19.4793 4.07991 19.352C4.02715 19.2246 4 19.0881 4 18.9502C4 18.8124 4.02715 18.6759 4.07991 18.5485C4.13266 18.4211 4.20999 18.3054 4.30746 18.2079L8.01012 13.6579C8.387 13.1948 8.34807 12.5206 7.92039 12.1039L5.50945 9.75505C5.04916 9.30661 5.04284 8.56201 5.57662 8.20416C6.60475 7.5149 8.25259 6.82076 10.6335 6.87988C10.9668 6.88816 11.2942 6.76931 11.53 6.53357L15.0585 3.00583L15.7265 2.3378C16.1769 1.8874 16.9072 1.8874 17.3576 2.3378L18.0256 3.00583L20.9936 5.97294L21.6622 6.64153C22.1126 7.09192 22.1126 7.82212 21.6622 8.27251L20.9936 8.9411L17.4999 12.435C17.2448 12.6901 17.128 13.0511 17.1587 13.4105C17.3745 15.9399 16.5937 17.4918 15.8444 18.4573C15.449 18.9668 14.6915 18.9464 14.2438 18.4822L12.1663 16.3278Z"/>
<path fill-rule="evenodd" clip-rule="evenodd" d="M12.1663 16.3278C11.7686 15.9154 11.1284 15.8575 10.6631 16.1919L5.86818 19.6378C5.81749 19.6742 5.77073 19.7158 5.72284 19.7558C5.64136 19.8239 5.54989 19.8793 5.45146 19.9201C5.3241 19.9728 5.1876 20 5.04974 20C4.91189 20 4.77538 19.9728 4.64802 19.9201C4.52066 19.8673 4.40494 19.79 4.30746 19.6925C4.20999 19.595 4.13266 19.4793 4.07991 19.352C4.02715 19.2246 4 19.0881 4 18.9502C4 18.8124 4.02715 18.6759 4.07991 18.5485C4.13266 18.4211 4.20999 18.3054 4.30746 18.2079L8.01012 13.6579C8.387 13.1948 8.34807 12.5206 7.92039 12.1039L5.50945 9.75505C5.04916 9.30661 5.04284 8.56201 5.57662 8.20416C6.60475 7.5149 8.25259 6.82076 10.6335 6.87988C10.9668 6.88816 11.2942 6.76931 11.53 6.53357L15.0585 3.00583L15.7265 2.3378C16.1769 1.8874 16.9072 1.8874 17.3576 2.3378L18.0256 3.00583L20.9936 5.97294L21.6622 6.64153C22.1126 7.09192 22.1126 7.82212 21.6622 8.27251L20.9936 8.9411L17.4999 12.435C17.2448 12.6901 17.128 13.0511 17.1587 13.4105C17.3745 15.9399 16.5937 17.4918 15.8444 18.4573C15.449 18.9668 14.6915 18.9464 14.2438 18.4822L12.1663 16.3278Z"/>
</mask>
<path d="M5.45146 19.9201L6.0255 21.3059L5.45146 19.9201ZM5.04974 20V21.5V20ZM4.30746 18.2079L5.36814 19.2686L5.42244 19.2143L5.47091 19.1547L4.30746 18.2079ZM15.0585 3.00583L16.1191 4.06661L16.1192 4.06647L15.0585 3.00583ZM18.0256 3.00583L16.9649 4.06647L16.9651 4.06666L18.0256 3.00583ZM20.9936 5.97294L22.0543 4.9123L22.0541 4.91211L20.9936 5.97294ZM20.9936 8.9411L19.933 7.88046L19.933 7.88046L20.9936 8.9411ZM21.6622 8.27251L22.7229 9.33316V9.33315L21.6622 8.27251ZM21.6622 6.64153L22.7229 5.58089L22.7229 5.58089L21.6622 6.64153ZM15.7265 2.3378L14.6659 1.27716L14.6659 1.27716L15.7265 2.3378ZM17.3576 2.3378L16.2969 3.39845V3.39845L17.3576 2.3378ZM15.8444 18.4573L17.0294 19.377L15.8444 18.4573ZM14.2438 18.4822L15.3236 17.441V17.441L14.2438 18.4822ZM17.4999 12.435L16.4392 11.3743L17.4999 12.435ZM17.1587 13.4105L15.6641 13.5381L17.1587 13.4105ZM5.86818 19.6378L4.99279 18.4197H4.99279L5.86818 19.6378ZM5.72284 19.7558L6.68465 20.9068L5.72284 19.7558ZM10.6335 6.87988L10.6707 5.38035L10.6335 6.87988ZM11.53 6.53357L10.4694 5.47278L10.4694 5.47278L11.53 6.53357ZM10.6631 16.1919L11.5385 17.4099H11.5385L10.6631 16.1919ZM12.1663 16.3278L11.0866 17.3691L11.0866 17.3691L12.1663 16.3278ZM5.50945 9.75505L4.46271 10.8294H4.46271L5.50945 9.75505ZM5.57662 8.20416L4.74134 6.95824L5.57662 8.20416ZM8.01012 13.6579L9.17356 14.6047H9.17357L8.01012 13.6579ZM7.92039 12.1039L8.96713 11.0295H8.96713L7.92039 12.1039ZM9.78774 14.9738L4.99279 18.4197L6.74356 20.8559L11.5385 17.4099L9.78774 14.9738ZM4.76103 18.6047C4.79598 18.5755 4.83521 18.5518 4.87742 18.5343L6.0255 21.3059C6.26457 21.2069 6.48675 21.0722 6.68465 20.9068L4.76103 18.6047ZM4.87742 18.5343C4.93202 18.5117 4.99057 18.5 5.04974 18.5V21.5C5.38462 21.5 5.71618 21.434 6.0255 21.3059L4.87742 18.5343ZM5.04974 18.5C5.10892 18.5 5.16747 18.5117 5.22206 18.5343L4.07398 21.3059C4.3833 21.434 4.71486 21.5 5.04974 21.5V18.5ZM5.22206 18.5343C5.27668 18.5569 5.32632 18.5901 5.36814 18.6319L3.24679 20.7532C3.48356 20.9899 3.76464 21.1778 4.07398 21.3059L5.22206 18.5343ZM5.36814 18.6319C5.40995 18.6737 5.44311 18.7233 5.46573 18.7779L2.69408 19.926C2.82222 20.2353 3.01003 20.5164 3.24679 20.7532L5.36814 18.6319ZM5.46573 18.7779C5.48836 18.8326 5.5 18.8911 5.5 18.9502H2.5C2.5 19.2851 2.56595 19.6166 2.69408 19.926L5.46573 18.7779ZM5.5 18.9502C5.5 19.0093 5.48836 19.0679 5.46573 19.1225L2.69408 17.9745C2.56595 18.2838 2.5 18.6154 2.5 18.9502H5.5ZM5.46573 19.1225C5.4431 19.1771 5.40994 19.2268 5.36814 19.2686L3.24679 17.1473C3.01003 17.384 2.82222 17.6651 2.69408 17.9745L5.46573 19.1225ZM5.47091 19.1547L9.17356 14.6047L6.84667 12.7112L3.14402 17.2611L5.47091 19.1547ZM8.96713 11.0295L6.55619 8.68065L4.46271 10.8294L6.87365 13.1783L8.96713 11.0295ZM6.41189 9.45009C7.19927 8.92222 8.54511 8.32849 10.5963 8.37942L10.6707 5.38035C7.96006 5.31303 6.01023 6.10757 4.74134 6.95824L6.41189 9.45009ZM12.5905 7.59436L16.1191 4.06661L13.998 1.94504L10.4694 5.47278L12.5905 7.59436ZM16.9651 4.06666L19.9332 7.03377L22.0541 4.91211L19.0861 1.945L16.9651 4.06666ZM19.933 7.88046L16.4392 11.3743L18.5606 13.4956L22.0543 10.0017L19.933 7.88046ZM15.6641 13.5381C15.8443 15.6501 15.2046 16.8351 14.6594 17.5377L17.0294 19.377C17.9828 18.1485 18.9046 16.2296 18.6533 13.283L15.6641 13.5381ZM15.3236 17.441L13.2461 15.2866L11.0866 17.3691L13.1641 19.5234L15.3236 17.441ZM16.1192 4.06647L16.7872 3.39845L14.6659 1.27716L13.9979 1.94519L16.1192 4.06647ZM19.0862 1.94518L18.4182 1.27716L16.2969 3.39845L16.9649 4.06647L19.0862 1.94518ZM22.0543 10.0017L22.7229 9.33316L20.6015 7.21187L19.933 7.88046L22.0543 10.0017ZM19.933 7.03359L20.6015 7.70218L22.7229 5.58089L22.0543 4.9123L19.933 7.03359ZM22.7229 9.33315C23.759 8.29699 23.759 6.61706 22.7229 5.58089L20.6015 7.70218C20.4662 7.56678 20.4662 7.34726 20.6015 7.21187L22.7229 9.33315ZM16.7872 3.39845C16.6518 3.53385 16.4323 3.53385 16.2969 3.39845L18.4182 1.27716C17.3821 0.240945 15.702 0.240949 14.6659 1.27716L16.7872 3.39845ZM14.6594 17.5377C14.7706 17.3944 14.9362 17.3351 15.0609 17.3349C15.1722 17.3347 15.2625 17.3777 15.3236 17.441L13.1641 19.5234C14.1339 20.5291 15.979 20.7304 17.0294 19.377L14.6594 17.5377ZM16.4392 11.3743C15.8409 11.9727 15.5997 12.7829 15.6641 13.5381L18.6533 13.283C18.6563 13.3193 18.6487 13.4074 18.5606 13.4956L16.4392 11.3743ZM4.99279 18.4197C4.88306 18.4986 4.76191 18.604 4.76103 18.6047L6.68465 20.9068C6.70149 20.8928 6.71795 20.8788 6.72832 20.87C6.74034 20.8598 6.74715 20.8541 6.75283 20.8494C6.76438 20.8398 6.7586 20.8451 6.74356 20.8559L4.99279 18.4197ZM10.5963 8.37942C11.3024 8.39696 12.0386 8.14608 12.5905 7.59435L10.4694 5.47278C10.5497 5.39253 10.6312 5.37936 10.6707 5.38035L10.5963 8.37942ZM11.5385 17.4099C11.3986 17.5105 11.2062 17.493 11.0866 17.3691L13.2461 15.2866C12.3311 14.3377 10.8582 14.2045 9.78774 14.9738L11.5385 17.4099ZM6.55619 8.68065C6.61877 8.74162 6.67347 8.84441 6.66973 8.98538C6.66547 9.14633 6.57937 9.3378 6.41189 9.45009L4.74134 6.95824C3.25078 7.95752 3.46997 9.86226 4.46271 10.8294L6.55619 8.68065ZM9.17357 14.6047C10.0406 13.5392 9.95107 11.9881 8.96713 11.0295L6.87365 13.1783C6.74508 13.0531 6.73337 12.8504 6.84667 12.7112L9.17357 14.6047Z" fill="#6C808C" mask="url(#path-1-inside-1_116_62776)"/>
</g>
<defs>
<clipPath id="clip0_116_62776">
<rect width="24" height="24" fill="white"/>
</clipPath>
</defs>
</svg>
